<svg xmlns="http://www.w3.org/2000/svg"><symbol fill="none" id="icon-facebook" viewBox="0 0 24 24"><title>facebook</title><path d="M14.2 2.875A4.625 4.625 0 009.575 7.5v2.575H7.1c-.124 0-.225.1-.225.225v3.4c0 .124.1.225.225.225h2.475V20.9c0 .124.1.225.225.225h3.4c.124 0 .225-.1.225-.225v-6.975h2.497c.103 0 .193-.07.218-.17l.85-3.4a.225.225 0 00-.218-.28h-3.347V7.5a.775.775 0 01.775-.775h2.6c.124 0 .225-.1.225-.225V3.1c0-.124-.1-.225-.225-.225h-2.6z" fill="#000"/></symbol><symbol fill="none" id="icon-power" viewBox="0 0 40 45"><title>power</title><path d="M19.674 45C8.83 45 0 35.995 0 24.925A20.074 20.074 0 017.78 8.929a2.737 2.737 0 013.886.542 2.868 2.868 0 01-.533 3.965 14.418 14.418 0 00-5.586 11.49c0 7.929 6.339 14.418 14.128 14.418 7.788 0 14.128-6.468 14.128-14.419a14.42 14.42 0 00-5.599-11.489 2.868 2.868 0 01-.533-3.965 2.736 2.736 0 013.899-.542 20.072 20.072 0 017.78 15.996C39.35 35.995 30.52 45 19.673 45z" fill="#fff"/><path d="M19.674 26.894a2.907 2.907 0 01-2.77-3.04V3.975a2.906 2.906 0 012.77-3.027 2.908 2.908 0 012.771 3.026v19.882a2.907 2.907 0 01-2.77 3.04z" fill="#fff"/></symbol><symbol fill="none" id="icon-reddit" viewBox="0 0 24 24"><title>reddit</title><path fill-rule="evenodd" clip-rule="evenodd" d="M19.96 1.75c-.873 0-1.636.479-2.038 1.188l-3.6-.739a.75.75 0 00-.841.442c-.411.966-1.027 2.431-1.542 3.685-.226.552-.434 1.066-.596 1.48-1.918.092-3.692.59-5.157 1.384a3.066 3.066 0 10-3.817 4.57 5.371 5.371 0 00-.132 1.187c0 2.04 1.151 3.842 2.921 5.114 1.77 1.273 4.191 2.044 6.842 2.044 2.65 0 5.071-.771 6.842-2.044 1.77-1.272 2.921-3.073 2.921-5.114 0-.405-.045-.802-.132-1.186a3.065 3.065 0 10-3.817-4.57c-1.39-.755-3.059-1.241-4.864-1.368l.377-.928c.419-1.021.907-2.185 1.295-3.103l3.018.62a2.343 2.343 0 102.32-2.662zm-.842 2.342a.842.842 0 111.685 0 .842.842 0 01-1.685 0zm1.983 8.25c-.47-.883-1.166-1.673-2.024-2.334a1.566 1.566 0 112.024 2.334zM4.923 10.008A1.566 1.566 0 102.9 12.342c.47-.883 1.166-1.673 2.024-2.334zm10.614 4.94a1.447 1.447 0 100-2.895 1.447 1.447 0 000 2.894zM9.905 13.5a1.447 1.447 0 11-2.895 0 1.447 1.447 0 012.895 0zM8.85 16.629a.75.75 0 00-.8 1.268l.345.218a6.75 6.75 0 007.202 0l.345-.217a.75.75 0 10-.8-1.27l-.345.218a5.25 5.25 0 01-5.602 0l-.345-.217z" fill="#000"/></symbol><symbol fill="none" id="icon-telegram" viewBox="0 0 24 24"><title>telegram</title><path fill-rule="evenodd" clip-rule="evenodd" d="M18.483 19.79v-.002l.018-.043L21.5 4.625v-.048c0-.377-.14-.706-.442-.903-.265-.173-.57-.185-.784-.169a2.681 2.681 0 00-.586.12 3.231 3.231 0 00-.24.088l-.013.005-16.72 6.56H2.71a1.968 1.968 0 00-.149.062 2.27 2.27 0 00-.341.19c-.215.148-.624.496-.555 1.049.057.457.372.747.585.898a2.062 2.062 0 00.435.234l.01.003.007.003 2.926.985c-.01.183.008.37.057.555l1.465 5.559a1.5 1.5 0 002.834.196l2.288-2.446 3.929 3.012.056.024c.357.156.69.205.995.164.305-.042.547-.17.729-.315a1.742 1.742 0 00.49-.634l.008-.018.003-.006.001-.003zM7.135 13.875a.3.3 0 01.13-.33l9.921-6.3s.584-.355.563 0c0 0 .104.062-.209.353-.296.278-7.071 6.819-7.757 7.48a.278.278 0 00-.077.136L8.6 19.434l-1.465-5.56z" fill="#000"/></symbol><symbol fill="none" id="icon-twitch" viewBox="0 0 24 24"><title>twitch</title><path fill-rule="evenodd" clip-rule="evenodd" d="M3.9 2.5a.9.9 0 00-.9.9v14.194a.9.9 0 00.9.9h4.116v3.03a.7.7 0 001.194.494l3.525-3.524h4.643a.9.9 0 00.636-.264l2.722-2.722a.9.9 0 00.264-.636V3.4a.9.9 0 00-.9-.9H3.9zm7.319 5.2a.75.75 0 00-1.5 0v4.272a.75.75 0 101.5 0V7.7zm5.016 0a.75.75 0 00-1.5 0v4.272a.75.75 0 101.5 0V7.7z" fill="#000"/></symbol><symbol fill="none" id="icon-twitter" viewBox="0 0 24 24"><title>twitter</title><path d="M21.81 6.227c.058-.08-.028-.185-.12-.149a8.49 8.49 0 01-2.05.513 4.13 4.13 0 001.72-2.02c.034-.086-.06-.163-.14-.118a8.21 8.21 0 01-2.325.857.1.1 0 01-.093-.03 4.1 4.1 0 00-6.991 3.65.102.102 0 01-.105.123 11.64 11.64 0 01-8.223-4.17.098.098 0 00-.163.015 4.16 4.16 0 00-.48 1.943 4.09 4.09 0 001.82 3.41 4.05 4.05 0 01-1.709-.43c-.068-.035-.15.014-.147.09a4.23 4.23 0 00.933 2.468A4.1 4.1 0 006.1 13.79a3.93 3.93 0 01-1.1.17 4.901 4.901 0 01-.606-.045c-.075-.01-.136.06-.11.13A4.11 4.11 0 008.06 16.73a8.22 8.22 0 01-5.625 1.741c-.106-.007-.155.134-.064.188a11.57 11.57 0 005.919 1.62A11.59 11.59 0 0020 8.6v-.48a.1.1 0 01.04-.08 8.429 8.429 0 001.77-1.813z" fill="#000"/></symbol><symbol fill="none" id="icon-youtube" viewBox="0 0 24 24"><title>youtube</title><path fill-rule="evenodd" clip-rule="evenodd" d="M6.989 4.89a64.248 64.248 0 0110.022 0l2.24.176a2.725 2.725 0 012.476 2.268c.517 3.09.517 6.243 0 9.332a2.725 2.725 0 01-2.475 2.268l-2.24.175a64.249 64.249 0 01-10.023 0l-2.24-.175a2.725 2.725 0 01-2.476-2.268 28.315 28.315 0 010-9.332 2.725 2.725 0 012.475-2.268l2.24-.175zM10 14.47V9.53a.3.3 0 01.454-.257l4.117 2.47a.3.3 0 010 .514l-4.117 2.47A.3.3 0 0110 14.47z" fill="#000"/></symbol></svg>